<svg width="128" height="28" viewBox="0 0 128 28" fill="none" xmlns="http://www.w3.org/2000/svg">
<g opacity="0.8">
<path d="M12.3129 4.79771V7.58365C12.3129 7.88498 12.3035 7.88498 12.2854 8.22251C12.4317 7.89364 12.5765 7.70167 12.722 7.50183L14.46 5.20053V4.79771H15.1531V9.44042H14.46V6.70011C14.46 6.53725 14.471 6.25716 14.4978 6.03687C14.46 6.11948 14.3963 6.27447 14.0792 6.68516L12.3137 8.99433V9.44042H11.6229V4.79771H12.3129ZM15.9997 5.98258C16.0488 5.75053 16.1518 5.53328 16.3004 5.34836C16.449 5.16345 16.6389 5.01606 16.8549 4.91808C17.0201 4.83626 17.364 4.70802 17.9391 4.70802C18.3301 4.70802 18.7943 4.76152 19.1216 4.96214C19.5583 5.2265 19.6952 5.62775 19.6952 5.95583C19.6969 6.09256 19.6712 6.22825 19.6196 6.35487C19.5679 6.4815 19.4914 6.59648 19.3946 6.69303C19.2148 6.86095 18.9836 6.96324 18.7384 6.98335V7.00144C19.013 7.01797 19.3309 7.147 19.5315 7.35628C19.7054 7.53802 19.8218 7.81024 19.8218 8.13754C19.8218 8.6749 19.5126 9.03052 19.2396 9.21226C18.8124 9.50258 18.2569 9.53011 17.8761 9.53011C17.5016 9.53011 16.8557 9.51123 16.3915 9.10054C16.1313 8.85997 15.9558 8.54179 15.8911 8.1934L16.5646 8.05571C16.6181 8.33738 16.7542 8.51912 16.829 8.59229C17.0013 8.77561 17.312 8.96443 17.8384 8.96443C18.1114 8.96443 18.4662 8.91172 18.6834 8.76616C18.7894 8.70202 18.8766 8.61094 18.936 8.50218C18.9954 8.39342 19.025 8.27087 19.0217 8.14698C19.0217 7.85666 18.9107 7.67256 18.8022 7.57342C18.548 7.33582 18.1838 7.31064 17.884 7.31064H17.3647V6.74732H17.884C18.0752 6.74732 18.3569 6.71191 18.5292 6.62852C18.8667 6.4751 18.9312 6.21074 18.9312 5.97393C18.9318 5.87624 18.9089 5.77983 18.8644 5.69287C18.8199 5.60591 18.7551 5.53094 18.6755 5.47433C18.4945 5.32878 18.1751 5.27292 17.8659 5.27292C17.6016 5.27292 17.2751 5.32878 17.0013 5.55379C16.8162 5.70701 16.6906 5.92026 16.6464 6.15646L15.9997 5.98258ZM24.0436 4.79771V8.8771H24.5173V10.6867H23.88V9.44121H20.7958V10.6867H20.1578V8.8771H20.504C20.6798 8.61826 20.8262 8.34066 20.9406 8.04942C21.2781 7.19263 21.3143 6.28234 21.3411 5.21784L21.3505 4.79771H24.0436ZM21.9233 5.61123C21.8957 6.29178 21.8147 7.42158 21.5142 8.22251C21.4221 8.45775 21.2773 8.76695 21.2231 8.8771H23.3513V5.36497H21.9311L21.9233 5.61123ZM25.0491 5.97471C25.2497 4.98417 26.0042 4.70959 27.0137 4.70959C27.3244 4.70959 27.9247 4.71903 28.3339 5.04711C28.835 5.44758 28.8429 6.08329 28.8429 6.68595V8.46719C28.8429 8.72289 28.8704 9.03288 28.9617 9.442H28.2332C28.1886 9.1554 28.161 8.86641 28.1505 8.57655C28.0247 8.84012 27.6234 9.53247 26.5322 9.53247C25.9397 9.53247 25.566 9.33342 25.3386 9.12336C25.2033 8.99825 25.096 8.8458 25.024 8.67612C24.952 8.50644 24.9168 8.3234 24.9209 8.13911C24.9209 7.51284 25.2773 7.14857 25.5487 6.9684C26.1128 6.58446 26.8414 6.57344 27.551 6.57344H28.1505V6.38462C28.1505 6.13679 28.134 5.82837 27.9704 5.61044C27.7328 5.29258 27.3323 5.27292 27.005 5.27292C26.6226 5.27292 25.8225 5.32878 25.7124 6.0825L25.0491 5.97471ZM27.5605 7.13913C26.8311 7.13913 26.4134 7.23039 26.1584 7.36572C26.0146 7.43668 25.8939 7.54689 25.81 7.68361C25.7262 7.82033 25.6828 7.97797 25.6848 8.13832C25.6848 8.32085 25.7588 8.58442 26.0231 8.75672C26.1506 8.84877 26.3685 8.9306 26.6872 8.9306C26.8976 8.93011 27.1053 8.88325 27.2955 8.79336C27.4858 8.70348 27.6539 8.57277 27.7878 8.41054C28.0247 8.12101 28.1505 7.69459 28.1505 7.36572V7.13913H27.5605ZM32.8735 4.79771V5.36497H31.418V9.44121H30.7264V5.36497H29.2701V4.79771H32.8735ZM37.0678 8.17451C36.9398 8.58817 36.673 8.94499 36.3125 9.18472C35.949 9.43019 35.5674 9.5309 35.1205 9.5309C34.4659 9.5309 33.9467 9.31297 33.547 8.85664C33.1371 8.39245 32.9829 7.80237 32.9829 7.15565C32.9829 5.91964 33.6744 4.7088 35.1386 4.7088C36.8679 4.7088 37.1496 6.30988 37.1496 7.0573V7.22017H33.7822C33.7728 7.52788 33.8258 7.83432 33.938 8.12101C34.1654 8.67569 34.5832 8.9306 35.1481 8.9306C35.6484 8.9306 35.949 8.71188 36.1126 8.53013C36.2409 8.39245 36.34 8.20284 36.3951 8.0384L37.0678 8.17451ZM36.3494 6.65684C36.34 6.37439 36.2676 6.03687 36.1315 5.81028C36.0307 5.64102 35.8864 5.50189 35.7136 5.40738C35.5407 5.31286 35.3457 5.26643 35.1488 5.27292C34.6949 5.27292 34.3471 5.49085 34.1394 5.74655C33.9409 6.00935 33.8295 6.32761 33.8208 6.65684H36.3494ZM41.1896 4.79771V9.44042H40.4989V5.36497H39.0064C38.934 7.43889 38.8529 8.05729 38.716 8.46562C38.4061 9.36804 37.687 9.44042 37.3683 9.44042H37.3321V8.83855H37.4045C37.6154 8.8291 37.9332 8.6749 38.1071 8.35862C38.2432 8.11157 38.3431 7.65761 38.3888 5.31855L38.3982 4.79771H41.1896ZM43.011 4.79771V6.62773H44.3045C44.6664 6.62773 45.1227 6.66549 45.45 6.98335C45.605 7.13834 45.8229 7.44675 45.8229 8.00221C45.8229 8.4491 45.6963 8.82989 45.3579 9.12257C45.0401 9.40345 44.6947 9.44042 44.4233 9.44042H42.3202V4.79771H43.011ZM43.011 8.8771H44.0944C44.295 8.8771 44.5491 8.8771 44.7765 8.68434C44.941 8.53957 45.0582 8.30197 45.0582 7.99434C45.0582 7.63007 44.8945 7.43889 44.7498 7.33818C44.5751 7.23039 44.3037 7.19263 44.1204 7.19263H43.0102V8.8771H43.011ZM49.4302 6.42081C49.3955 6.1712 49.3089 5.93161 49.1761 5.71744C49.0495 5.53727 48.7851 5.30832 48.3303 5.30832C47.9299 5.30832 47.6388 5.4995 47.4382 5.82759C47.1848 6.23749 47.1376 6.76384 47.1376 7.13834C47.1376 8.01087 47.3831 8.39245 47.4382 8.46562C47.5924 8.69299 47.8654 8.92902 48.3201 8.92902C48.6663 8.92902 48.9228 8.81258 49.1305 8.5498C49.2941 8.33895 49.3933 8.05886 49.4302 7.79529L50.0856 7.91173C50.0211 8.35862 49.8228 8.76695 49.5569 9.03996C49.2296 9.37748 48.8016 9.53169 48.3012 9.53169C47.7198 9.53169 47.3013 9.32162 47.0282 9.07694C46.5735 8.65759 46.3367 7.91252 46.3367 7.1289C46.3367 6.51129 46.4736 5.94639 46.8198 5.4641C47.1368 5.02823 47.6002 4.7088 48.3469 4.7088C48.8559 4.7088 49.2839 4.86222 49.612 5.23672C49.8748 5.53806 50.0298 5.96527 50.0848 6.30122L49.4302 6.42081ZM53.8613 4.79771V5.36497H52.405V9.44121H51.7142V5.36497H50.2579V4.79771H53.8613ZM56.46 4.79771C56.8329 4.79771 57.2326 4.81816 57.5426 4.99912C57.7157 5.09983 58.0343 5.35395 58.0343 5.8921C58.0343 6.2013 57.9431 6.46566 57.7236 6.66549C57.6504 6.72765 57.4513 6.90231 57.1241 6.9566V6.97391C57.46 7.00066 57.7959 7.14778 57.9879 7.33739C58.0784 7.42787 58.2979 7.68357 58.2979 8.13046C58.2979 8.5561 58.1162 8.92037 57.8156 9.15797C57.4608 9.43098 57.0611 9.44042 56.6874 9.44042H54.405V4.79771H56.46ZM55.0942 6.73709H56.3861C56.6048 6.73709 56.8872 6.72057 57.0886 6.50185C57.2051 6.37596 57.2688 6.18163 57.2688 5.97393C57.2727 5.88927 57.2566 5.80488 57.2217 5.72763C57.1869 5.65039 57.1343 5.58247 57.0682 5.5294C56.8778 5.36497 56.6591 5.36497 56.449 5.36497H55.0942V6.73709ZM55.0942 8.8771H56.5521C56.8872 8.8771 57.1335 8.78505 57.279 8.64894C57.4238 8.51361 57.4962 8.2941 57.4962 8.0864C57.4999 7.97239 57.4764 7.85913 57.4277 7.75598C57.379 7.65284 57.3065 7.56275 57.2161 7.49317C56.9872 7.32008 56.6599 7.30199 56.4876 7.30199H55.0942V8.8771ZM60.958 4.7088C62.1594 4.7088 63.0508 5.601 63.0508 7.12103C63.0508 8.64028 62.1594 9.5309 60.958 9.5309C59.7574 9.5309 58.8667 8.63949 58.8667 7.12103C58.8667 5.601 59.7574 4.7088 60.958 4.7088ZM62.2514 7.12182C62.2514 5.601 61.5142 5.30911 60.958 5.30911C60.4033 5.30911 59.6661 5.601 59.6661 7.12182C59.6661 8.64107 60.4033 8.92981 60.958 8.92981C61.515 8.92902 62.2514 8.64028 62.2514 7.12182ZM13.6087 14.032L15.2184 19.847L16.8644 14.032H18.7794V22.0948H17.5103V15.2192L15.5945 22.0948H14.6323L12.7504 15.2066V22.0948H11.6213V14.032H13.6087ZM23.3686 14.032L25.5314 22.0932H24.1687L23.6628 20.0712H21.312L20.8202 22.0932H19.537L21.8643 14.032H23.3686ZM22.4874 15.3357L21.5842 19.0138H23.404L22.4874 15.3357ZM27.6706 14.032V17.3789H30.0451V14.032H31.3849V22.0948H30.0451V18.4843H27.6706V22.0948H26.3315V14.032H27.6706ZM34.1111 14.032V17.3789H36.484V14.032H37.8246V22.0948H36.484V18.4843H34.1111V22.0948H32.772V14.032H34.1111ZM40.5657 20.5771V22.024L39.6728 23.7974H39.0961L39.8372 22.0932H39.2149V20.5771H40.5657ZM44.5602 14.032V18.8132C44.5602 19.1657 44.5011 19.3899 44.4657 19.7888C44.7128 19.179 44.7608 19.0838 44.7828 19.0374L47.0873 14.5945V14.032H48.4271V22.0948H47.0873V17.2845C47.0873 17.0752 47.1219 16.9564 47.1817 16.2397C46.9228 16.8038 47.0393 16.6165 46.8048 17.0642L44.5594 21.4363V22.0956H43.2195V14.032H44.5602ZM52.2815 14.032C52.9046 14.032 53.527 14.032 53.9982 14.3255C54.4561 14.6189 54.8204 15.2192 54.8204 16.0516C54.8204 16.733 54.608 17.109 54.4435 17.3089C54.2429 17.5449 53.9376 17.7314 53.6214 17.8392C53.9982 17.932 54.2917 18.1318 54.5018 18.3451C54.962 18.803 55.0659 19.3435 55.0659 19.8258C55.0659 20.9186 54.5372 21.4591 54.1493 21.7061C53.5867 22.0704 52.9392 22.094 52.3169 22.094H49.8134V14.032H52.2815ZM51.9998 17.3569C52.3169 17.3569 52.8102 17.3207 53.0454 17.1547C53.3263 16.9556 53.4569 16.4859 53.4569 16.1807C53.4569 15.8526 53.3263 15.4757 53.0809 15.2885C52.8228 15.0871 52.3861 15.0871 52.1289 15.0871H51.1525V17.3569H51.9998ZM52.2225 21.0358C52.4459 21.0358 52.8582 21.0122 53.1863 20.8006C53.645 20.5071 53.7032 20.0704 53.7032 19.7306C53.7032 19.5299 53.6678 18.9792 53.2327 18.6605C52.9164 18.4269 52.5042 18.4151 52.1297 18.4151H51.1533V21.0358H52.2225ZM59.3325 14.032L61.4953 22.0932H60.1319L59.626 20.0712H57.2759L56.7834 22.0932H55.5009L57.8282 14.032H59.3325ZM58.4505 15.3357L57.5473 19.0138H59.3671L58.4505 15.3357ZM63.6345 14.032V17.3789H66.0074V14.032H67.3497V22.0948H66.0074V18.4843H63.6345V22.0948H62.2947V14.032H63.6345ZM73.2677 14.6535C74.1725 15.6165 74.2433 17.3679 74.2433 18.0618C74.2433 18.7321 74.1725 20.5299 73.2677 21.4709C72.916 21.8359 72.2796 22.2435 71.3512 22.2435C70.5416 22.2435 69.8713 21.9288 69.4362 21.4811C69.1419 21.1758 68.4488 20.2939 68.4488 18.0736C68.4488 17.2971 68.5416 15.5457 69.4362 14.6307C69.7768 14.2759 70.411 13.8786 71.3512 13.8786C72.2937 13.8786 72.9027 14.2665 73.2677 14.6535ZM70.0239 16.2523C69.9311 16.6629 69.8587 17.5669 69.8587 18.0618C69.8587 18.5543 69.9311 19.4607 70.0239 19.8722C70.1883 20.5661 70.5754 21.1397 71.352 21.1397C71.7878 21.1397 72.3873 20.9768 72.6572 19.8722C72.7736 19.3907 72.8334 18.8132 72.8334 18.0618C72.8334 17.1909 72.7516 16.6504 72.6572 16.2523C72.5392 15.7936 72.2449 14.9832 71.352 14.9832C71.1183 14.9832 70.3055 15.0532 70.0239 16.2523ZM77.8302 14.032C78.4533 14.032 79.0764 14.032 79.5469 14.3255C80.0048 14.6189 80.3691 15.2192 80.3691 16.0516C80.3691 16.733 80.1575 17.109 79.993 17.3089C79.7924 17.5449 79.4871 17.7314 79.1701 17.8392C79.5469 17.932 79.8404 18.1318 80.052 18.3451C80.5107 18.803 80.6161 19.3435 80.6161 19.8258C80.6161 20.9186 80.0859 21.4591 79.6996 21.7061C79.1347 22.0704 78.4879 22.094 77.8648 22.094H75.3621V14.032H77.8302ZM77.547 17.3569C77.864 17.3569 78.3581 17.3207 78.5926 17.1547C78.8758 16.9556 79.0048 16.4859 79.0048 16.1807C79.0048 15.8526 78.8758 15.4757 78.6288 15.2885C78.3699 15.0871 77.9348 15.0871 77.6768 15.0871H76.7012V17.3569H77.547ZM77.7712 21.0358C77.9954 21.0358 78.4077 21.0122 78.735 20.8006C79.1937 20.5071 79.2519 20.0704 79.2519 19.7306C79.2519 19.5299 79.2173 18.9792 78.7822 18.6605C78.4651 18.4269 78.0544 18.4151 77.6784 18.4151H76.7028V21.0358H77.7712ZM84.9473 14.032V18.8132C84.9473 19.1657 84.8883 19.3899 84.8537 19.7888C85.0991 19.179 85.1487 19.0838 85.1707 19.0374L87.4744 14.5945V14.032H88.8135V22.0948H87.4744V17.2845C87.4744 17.0752 87.509 16.9564 87.568 16.2397C87.31 16.8038 87.4264 16.6165 87.1912 17.0642L84.9465 21.4363V22.0956H83.6066V14.032H84.9473ZM95.9062 13.796V14.829H95.9644C96.3539 14.829 97.1878 14.8534 97.8818 15.4395C98.3168 15.8038 98.8566 16.5552 98.8566 17.8966C98.8566 18.954 98.5387 19.7424 98.1044 20.1995C97.5167 20.8234 96.7284 20.9658 95.9062 20.987V22.1743H94.6159V20.987C93.7906 20.9658 93.0022 20.8234 92.4169 20.1995C91.9802 19.7424 91.6639 18.954 91.6639 17.8966C91.6639 16.5552 92.2044 15.8038 92.6395 15.4395C93.3327 14.8534 94.1666 14.829 94.5553 14.829H94.6159V13.796H95.9062ZM94.6505 15.8872H94.5679C94.0636 15.8872 93.5805 16.0516 93.3106 16.3317C92.8992 16.7574 92.8638 17.5331 92.8638 17.9084C92.8638 18.7085 93.0038 19.3553 93.5451 19.6952C93.9094 19.9178 94.4389 19.9414 94.6505 19.9304V15.8872ZM95.8708 19.9312C96.0832 19.943 96.6119 19.9186 96.9762 19.6959C97.5167 19.3553 97.6575 18.7085 97.6575 17.9092C97.6575 17.5339 97.6229 16.7581 97.2114 16.3325C97.117 16.2397 96.7527 15.888 95.9534 15.888H95.8708V19.9312ZM104.492 14.032V15.135H101.214V17.3789H103.786V18.4843H101.214V20.9886H104.55V22.0948H99.8723V14.032H104.492ZM107.4 14.032C108.246 14.032 109.092 14.0768 109.714 14.7008C110.091 15.0768 110.361 15.7007 110.361 16.5221C110.361 17.098 110.196 17.7432 109.831 18.1672C109.21 18.9084 108.209 18.9422 107.435 18.9422H106.73V22.0932H105.389V14.032H107.4ZM106.731 17.8864H107.4C107.941 17.8864 108.446 17.8738 108.739 17.4151C108.811 17.2971 108.951 17.0256 108.951 16.4977C108.951 16.2153 108.915 15.8038 108.681 15.4993C108.376 15.0886 107.951 15.0886 107.4 15.0886H106.731V17.8864ZM115.896 15.0878H112.605V17.3215H113.981C114.344 17.3215 115.12 17.3577 115.707 17.8494C116.014 18.1216 116.424 18.6495 116.424 19.6361C116.424 20.2837 116.236 20.9886 115.848 21.4355C115.32 22.0452 114.627 22.0932 114.192 22.0932H111.265V14.032H115.896V15.0878ZM112.605 21.0358H113.815C114.169 21.0358 114.532 20.8942 114.732 20.6818C114.932 20.4717 115.061 20.1184 115.061 19.659C115.061 19.4607 115.038 19.0138 114.732 18.7203C114.52 18.5205 114.121 18.3789 113.745 18.3789H112.605V21.0358ZM122.129 14.032V15.135H118.851V17.3789H121.423V18.4843H118.851V20.9886H122.19V22.0948H117.511V14.032H122.129ZM125.038 14.032C125.884 14.032 126.73 14.0768 127.352 14.7008C127.729 15.0768 128 15.7007 128 16.5221C128 17.098 127.834 17.7432 127.471 18.1672C126.847 18.9084 125.849 18.9422 125.074 18.9422H124.368V22.0932H123.029V14.032H125.038ZM124.368 17.8864H125.038C125.579 17.8864 126.085 17.8738 126.378 17.4151C126.449 17.2971 126.59 17.0256 126.59 16.4977C126.59 16.2153 126.554 15.8038 126.32 15.4993C126.013 15.0886 125.591 15.0886 125.038 15.0886H124.368V17.8864ZM3.79143 24.2631V3.0322H6.71034V0H0V27.2961H6.71034V24.2631" fill="white"/>
</g>
</svg>
