<svg width="21" height="19" viewBox="0 0 21 19" fill="none" xmlns="http://www.w3.org/2000/svg">
<path d="M20.4 1.02403C20.1467 0.714513 19.7676 0.543945 19.3325 0.543945C19.0957 0.543945 18.8451 0.593898 18.5874 0.692223L1.04841 7.38734C0.117643 7.74254 -0.00771334 8.27559 0.000348677 8.56187C0.00841069 8.84799 0.163802 9.37313 1.11322 9.67506C1.11892 9.67696 1.12461 9.67854 1.1303 9.68028L3.59001 10.384L15.5692 4.26402C15.8677 4.11131 16.2335 4.22987 16.386 4.52848C16.5058 4.76307 16.4578 5.03876 16.2871 5.22024L16.2875 5.22071L9.62704 12.2977L9.43703 13.0677L11.8155 14.983L15.1114 17.637C15.1143 17.6392 15.1171 17.6416 15.1201 17.6438C15.4828 17.9252 15.8789 18.0738 16.2657 18.074C17.0217 18.074 17.6235 17.5145 17.7988 16.6489L20.6725 2.45907C20.7877 1.88967 20.691 1.37987 20.4 1.02403Z" fill="#4ED9F9"/>
<path d="M8.4868 11.852C8.51099 11.7539 8.55968 11.6603 8.63382 11.5814L13.0042 6.9375L4.89429 11.0808L6.73576 16.3472C6.84072 16.6472 6.9969 16.9027 7.19008 17.1026L8.48649 11.8519L8.4868 11.852Z" fill="#4ED9F9"/>
<path d="M8.32031 17.5902C8.75803 17.5866 9.18817 17.4019 9.56503 17.055L10.9123 15.8143L9.11593 14.3679L8.32031 17.5902Z" fill="#4ED9F9"/>
</svg>
